<?xml version="1.0" encoding="UTF-8" standalone="no"?>
<!DOCTYPE svg PUBLIC "-//W3C//DTD SVG 1.1//EN" "http://www.w3.org/Graphics/SVG/1.1/DTD/svg11.dtd">
<!-- Created with Vectornator (http://vectornator.io/) -->
<svg height="100%" stroke-miterlimit="10" style="fill-rule:nonzero;clip-rule:evenodd;stroke-linecap:round;stroke-linejoin:round;" version="1.1" viewBox="0 0 1500 1500" width="100%" xml:space="preserve" xmlns="http://www.w3.org/2000/svg" xmlns:vectornator="http://vectornator.io" xmlns:xlink="http://www.w3.org/1999/xlink">
<defs>
<filter color-interpolation-filters="sRGB" filterUnits="userSpaceOnUse" height="175.082" id="Filter" width="227.01" x="-2.60981" y="1227.43">
<feGaussianBlur in="SourceGraphic" result="Blur" stdDeviation="0.223202"/>
</filter>
<filter color-interpolation-filters="sRGB" filterUnits="userSpaceOnUse" height="210.605" id="Filter_2" width="283.231" x="138.431" y="1316.55">
<feGaussianBlur in="SourceGraphic" result="Blur" stdDeviation="0.223202"/>
</filter>
<path d="M1414.61-192.567C1411.27-191.954 1408.15-190.073 1406.07-187.055C1341.74-93.7662 1277.4-0.483946 1213.06 92.8051C1196.81 116.373 1180.56 139.954 1164.3 163.522C1160.24 169.414 1156.19 175.29 1152.12 181.182C1150.77 183.146 1149.42 185.104 1148.06 187.068C1147.93 187.269 1147.8 187.477 1147.63 187.665C1147.41 187.827 1147.18 187.942 1146.94 188.081C1145.36 189.03 1143.79 189.987 1142.21 190.935C1138.52 193.148 1134.83 195.367 1131.15 197.58C1117.98 205.483 1104.81 213.393 1091.64 221.296C1057.4 241.844 1023.16 262.393 988.919 282.946C978.911 288.954 968.885 294.947 958.877 300.955C956.77 302.22 954.649 303.481 952.542 304.746C951.488 305.379 950.407 305.922 949.404 306.632C947.855 307.728 946.07 308.631 944.823 310.061C943.484 311.596 942.75 313.563 941.788 315.358C941.294 316.28 941.011 317.29 940.614 318.258C939.821 320.194 939.028 322.132 938.235 324.068C934.865 332.296 931.498 340.514 928.128 348.742C916.235 377.783 904.34 406.846 892.447 435.887C886.698 449.924 880.952 463.954 875.204 477.991C873.222 482.831 871.224 487.679 869.242 492.52C868.647 493.972 868.07 495.403 867.476 496.855C867.332 497.204 867.166 497.566 867.027 497.916C866.938 498.068 866.83 498.18 866.725 498.308C866.461 498.627 866.176 498.936 865.912 499.256C865.121 500.214 864.344 501.182 863.552 502.14C860.913 505.336 858.258 508.526 855.619 511.722C847.966 520.99 840.325 530.271 832.673 539.539C817.631 557.755 802.583 575.956 787.544 594.174C782.794 599.927 778.053 605.688 773.304 611.441C771.72 613.359 770.127 615.272 768.544 617.19C767.731 618.175 766.874 619.152 766.162 620.213C765.397 621.352 764.809 622.57 764.149 623.774C743.897 660.691 723.644 697.61 703.392 734.528C696.641 746.834 689.903 759.147 683.153 771.453C680.983 775.408 678.803 779.351 676.633 783.306C676.09 784.296 675.536 785.298 674.993 786.289C674.662 786.448 674.329 786.611 673.998 786.77C672.409 787.534 670.834 788.276 669.245 789.04C664.476 791.332 659.711 793.638 654.943 795.929C640.108 803.059 625.261 810.177 610.427 817.307C566.453 838.442 522.464 859.594 478.49 880.729C476.043 881.905 473.639 883.011 471.732 885.048C470.498 886.367 469.547 887.89 468.876 889.567C467.92 891.957 467.562 894.884 467.065 897.361C466.457 900.386 465.844 903.414 465.236 906.439C461.794 923.581 458.37 940.701 454.928 957.844C449.259 986.078 443.587 1014.31 437.918 1042.55C436.095 1051.62 434.254 1060.7 432.432 1069.78C431.825 1072.81 431.241 1075.82 430.633 1078.85C430.431 1079.86 430.223 1080.86 430.021 1081.87C429.928 1082.32 429.82 1082.8 429.745 1083.27C429.091 1084.36 428.599 1085.65 428.049 1086.79C427.262 1088.43 426.498 1090.07 425.711 1091.7C422.958 1097.42 420.186 1103.12 417.433 1108.84C409.172 1126 400.915 1143.17 392.654 1160.33C384 1178.31 375.342 1196.29 366.688 1214.27C364.131 1219.58 361.565 1224.89 359.008 1230.2C358.256 1231.76 357.514 1233.32 356.762 1234.88C356.422 1235.05 356.087 1235.23 355.747 1235.4C353.559 1236.5 351.37 1237.59 349.182 1238.68C339.336 1243.6 329.483 1248.49 319.637 1253.41C278.064 1274.18 236.492 1294.95 194.919 1315.71C184.525 1320.9 174.135 1326.11 163.742 1331.3C160.459 1332.94 157.175 1334.57 153.893 1336.21C153.346 1336.48 152.789 1336.73 152.252 1337.03C151.036 1337.69 149.703 1338.18 148.638 1339.06C147.346 1340.13 146.362 1341.52 145.268 1342.8C144.576 1343.6 144.012 1344.62 143.404 1345.49C141.541 1348.16 139.688 1350.83 137.824 1353.5C131.199 1363 124.548 1372.52 117.923 1382.02C96.3905 1412.9 74.8832 1443.76 53.351 1474.64C-21.8044 1582.42-97.0063 1690.19-172.179 1797.96C-176.15 1803.65-174.75 1811.49-169.058 1815.47C-163.365 1819.44-155.525 1818.04-151.554 1812.34C-80.9258 1711.11-10.3159 1609.88 60.328 1508.66C83.945 1474.82 107.556 1440.96 131.173 1407.12C139.046 1395.84 146.919 1384.56 154.792 1373.28C157.278 1369.72 159.759 1366.17 162.245 1362.61C163.073 1361.42 163.914 1360.21 164.743 1359.02C164.751 1359.01 164.754 1358.99 164.763 1358.98C164.892 1358.91 165.029 1358.85 165.161 1358.79C165.708 1358.52 166.255 1358.24 166.802 1357.97C168.444 1357.15 170.085 1356.33 171.726 1355.51C176.651 1353.06 181.575 1350.6 186.499 1348.15C202.366 1340.23 218.233 1332.32 234.1 1324.41C266.927 1308.03 299.755 1291.67 332.584 1275.29C342.432 1270.38 352.28 1265.47 362.129 1260.56C364.317 1259.47 366.506 1258.38 368.694 1257.29C369.241 1257.01 369.808 1256.78 370.336 1256.47C371.872 1255.56 373.611 1254.89 374.879 1253.64C376.335 1252.21 377.241 1250.29 378.345 1248.57C378.835 1247.8 379.11 1246.95 379.504 1246.13C381.475 1242.05 383.465 1237.96 385.436 1233.87C392.334 1219.58 399.231 1205.26 406.129 1190.97C416.771 1168.91 427.404 1146.89 438.047 1124.83C441.594 1117.48 445.145 1110.13 448.693 1102.77C449.875 1100.32 451.066 1097.86 452.248 1095.41C452.888 1094.08 453.586 1092.79 454.05 1091.39C454.531 1089.94 454.746 1088.4 455.047 1086.91C455.353 1085.39 455.661 1083.89 455.966 1082.38C457.085 1076.84 458.198 1071.28 459.317 1065.73C462.572 1049.6 465.827 1033.49 469.082 1017.36C474.473 990.64 479.861 963.936 485.252 937.219C487.082 928.146 488.906 919.058 490.737 909.985C491.229 907.545 491.714 905.1 492.207 902.661C493.465 902.057 494.737 901.466 495.996 900.862C501.296 898.321 506.598 895.775 511.898 893.233C527.27 885.863 542.644 878.486 558.015 871.116C589.288 856.121 620.547 841.144 651.82 826.15C661.36 821.575 670.901 817.006 680.442 812.431C682.562 811.415 684.687 810.369 686.808 809.352C687.338 809.098 687.898 808.904 688.408 808.612C689.98 807.712 691.726 807.023 693.051 805.787C694.47 804.463 695.374 802.688 696.473 801.088C697.04 800.261 697.438 799.307 697.921 798.429C698.404 797.55 698.895 796.678 699.378 795.799C702.759 789.649 706.121 783.501 709.503 777.352C721.095 756.267 732.686 735.196 744.278 714.111C754.421 695.662 764.567 677.199 774.711 658.749C778.092 652.6 781.484 646.442 784.865 640.292C785.892 638.424 786.848 636.522 787.893 634.669C787.913 634.634 787.874 634.828 787.902 634.798C788.468 634.192 788.96 633.52 789.488 632.881C790.809 631.285 792.114 629.677 793.435 628.081C797.661 622.971 801.901 617.86 806.128 612.75C819.071 597.101 832.008 581.451 844.949 565.8C854.986 553.663 865.028 541.537 875.065 529.4C878.234 525.567 881.406 521.705 884.575 517.872C885.628 516.598 886.716 515.364 887.718 514.049C888.414 513.136 889.207 512.279 889.79 511.289C890.351 510.338 890.711 509.275 891.154 508.263C891.364 507.784 891.548 507.312 891.746 506.828C892.739 504.409 893.714 501.973 894.707 499.553C897.884 491.811 901.085 484.077 904.262 476.335C913.594 453.593 922.931 430.846 932.263 408.104C939.809 389.716 947.34 371.324 954.886 352.936C957.467 346.646 960.033 340.363 962.614 334.072C963.408 332.137 964.228 330.189 965.023 328.253C965.065 328.149 965.113 328.052 965.155 327.948C965.479 327.754 965.798 327.572 966.121 327.378C967.702 326.43 969.272 325.472 970.853 324.524C975.595 321.681 980.355 318.857 985.097 316.014C1000.38 306.852 1015.66 297.671 1030.94 288.506C1061.5 270.178 1092.04 251.859 1122.6 233.531C1132.08 227.843 1141.59 222.138 1151.07 216.45C1154.23 214.554 1157.38 212.669 1160.54 210.773C1161.07 210.457 1161.63 210.175 1162.15 209.835C1163.43 208.986 1164.81 208.266 1165.94 207.216C1167.06 206.159 1167.87 204.807 1168.81 203.577C1169.17 203.103 1169.48 202.599 1169.82 202.108C1171.85 199.163 1173.89 196.219 1175.92 193.274C1181.68 184.928 1187.43 176.565 1193.19 168.219C1212.16 140.728 1231.14 113.241 1250.11 85.7492C1309.38-0.161646 1368.66-86.0735 1427.93-171.984C1432.1-178.019 1430.57-186.288 1424.54-190.451C1421.52-192.532 1417.96-193.18 1414.61-192.567Z" id="Fill"/>
<path d="M1726.41-303.989C1725.98-303.424 1284.12 274.919 1284.12 274.919C1236.49 337.258 1176.63 379.982 1100.04 410.368C1067.16 423.41 1031.25 434.214 989.281 444.142C957.103 451.754 930.762 457.01 871.033 468.201C810.374 479.566 783.452 484.935 750.049 492.838C705.448 503.389 666.827 515.008 630.978 529.23C544.749 563.438 475.98 612.556 421.169 684.296C365.425 757.258 343.608 828.444 349.639 903.118C352.15 934.203 359.361 965.424 371.107 999.659C379.783 1024.95 387.886 1044.62 406.958 1088.33C425.38 1130.56 433.106 1149.27 441.08 1172.51C451.312 1202.33 457.419 1228.8 459.487 1254.41C464.304 1314.06 446.977 1370.6 400.09 1431.97C234.3 1648.97-41.5842 2010.06-42.0159 2010.63L5.6473 2047.06C6.07905 2046.49 281.963 1685.4 447.753 1468.4C503.497 1395.44 525.314 1324.26 519.283 1249.58C516.772 1218.5 509.591 1187.27 497.845 1153.03C489.169 1127.74 481.036 1108.08 461.964 1064.37C443.542 1022.14 435.816 1003.43 427.843 980.19C417.61 950.367 411.503 923.895 409.435 898.287C404.618 838.642 421.975 782.085 468.862 720.716C516.683 658.126 576.503 615.408 653.097 585.022C685.971 571.981 721.916 561.167 763.882 551.239C796.06 543.627 822.371 538.38 882.101 527.189C942.76 515.824 969.681 510.455 1003.08 502.553C1047.68 492.001 1086.31 480.382 1122.16 466.16C1208.38 431.952 1277.15 382.834 1331.96 311.094C1331.96 311.094 1773.64-266.995 1774.07-267.56L1726.41-303.989Z" id="Fill_2"/>
</defs>
<clipPath id="ArtboardFrame">
<rect height="1500" width="1500" x="0" y="0"/>
</clipPath>
<g clip-path="url(#ArtboardFrame)" id="Livello-1" vectornator:layerName="Livello 1">
<path d="M802.27 643.643L681.705 567.466" fill="none" opacity="1" stroke="#ebe0bb" stroke-linecap="square" stroke-linejoin="round" stroke-width="60" vectornator:layerName="Curva 6"/>
<path d="M825.179 884.56L658.425 779.201" fill="none" opacity="1" stroke="#bf9b96" stroke-linecap="square" stroke-linejoin="round" stroke-width="60" vectornator:layerName="Linea 4"/>
<path d="M506.858 908.568L403.46 843.237" fill="none" opacity="1" stroke="#a7d9a8" stroke-linecap="square" stroke-linejoin="round" stroke-width="60" vectornator:layerName="Curva 4"/>
<path d="M659.813 1005.21L506.858 908.568" fill="none" opacity="1" stroke="#ebe0bb" stroke-linecap="square" stroke-linejoin="round" stroke-width="60" vectornator:layerName="Linea 3"/>
<path d="M181.415 1359.53L40.3746 1270.42" fill="none" filter="url(#Filter)" opacity="1" stroke="#a7d9a8" stroke-linecap="square" stroke-linejoin="round" stroke-width="60" vectornator:blur="0.446404" vectornator:layerName="Curva 8"/>
<path d="M378.677 1484.17L181.415 1359.53" fill="none" filter="url(#Filter_2)" opacity="1" stroke="#ebe0bb" stroke-linecap="square" stroke-linejoin="round" stroke-width="60" vectornator:blur="0.446404" vectornator:layerName="Linea 7"/>
<path d="M658.425 779.201L486.334 670.469" fill="none" opacity="1" stroke="#e4c7a3" stroke-linecap="square" stroke-linejoin="round" stroke-width="60" vectornator:layerName="Curva 5"/>
<path d="M1123.07 426.733L928.206 303.61" fill="none" opacity="1" stroke="#bf9b96" stroke-linecap="butt" stroke-linejoin="round" stroke-width="60" vectornator:layerName="Linea 8"/>
<path d="M928.206 303.61L840.345 248.097" fill="none" opacity="1" stroke="#e4c7a3" stroke-linecap="square" stroke-linejoin="round" stroke-width="60" vectornator:layerName="Curva 9"/>
<path d="M470.858 1310.98L340.098 1228.36" fill="none" opacity="1" stroke="#e4c7a3" stroke-linecap="square" stroke-linejoin="round" stroke-width="60" vectornator:layerName="Linea 6"/>
<path d="M340.098 1228.36L212.603 1147.8" fill="none" opacity="1" stroke="#bf9b96" stroke-linecap="square" stroke-linejoin="round" stroke-width="60" vectornator:layerName="Curva 7"/>
<path d="M915.661 715.287L802.27 643.643" fill="none" opacity="1" stroke="#a7d9a8" stroke-linecap="square" stroke-linejoin="round" stroke-width="60" vectornator:layerName="Linea 5"/>
<path d="M1179.38 213.899L954.954 72.1024" fill="none" opacity="1" stroke="#ebe0bb" stroke-linecap="square" stroke-linejoin="round" stroke-width="60" vectornator:layerName="Curva 10"/>
<path d="M1292.77 285.542L1179.38 213.899" fill="none" opacity="1" stroke="#a7d9a8" stroke-linecap="square" stroke-linejoin="round" stroke-width="60" vectornator:layerName="Linea 9"/>
<g opacity="1" vectornator:layerName="Curva 11">
<use fill="#cc4029" fill-rule="nonzero" stroke="none" xlink:href="#Fill"/>
<mask height="2030.51" id="StrokeMask" maskUnits="userSpaceOnUse" width="1624.72" x="-184.439" y="-202.788">
<rect fill="#ffffff" height="2030.51" stroke="none" width="1624.72" x="-184.439" y="-202.788"/>
<use fill="#000000" fill-rule="evenodd" stroke="none" xlink:href="#Fill"/>
</mask>
<use fill="none" mask="url(#StrokeMask)" stroke="#ffffff" stroke-linecap="butt" stroke-linejoin="round" stroke-width="20" xlink:href="#Fill"/>
</g>
<path d="M-439.2 1859.81C-439.2 1859.81-218.147 1570.49 2.90581 1281.16C223.959 991.831 644.979 1160.86 866.031 871.534C956.45 753.189 939.443 654.97 902.892 560.413" fill="none" opacity="1" stroke="#605f5f" stroke-linecap="butt" stroke-linejoin="round" stroke-width="60" vectornator:layerName="Linea 1"/>
<path d="M823.938 260.906C830.883 217.865 849.9 172.563 887.117 123.85C1108.17-165.477 1329.22-454.804 1329.22-454.804" fill="none" opacity="1" stroke="#605f5f" stroke-linecap="butt" stroke-linejoin="round" stroke-width="60" vectornator:layerName="Curva 2"/>
<path d="M844.737 420.221C826.343 369.264 814.886 317.006 823.938 260.906" fill="none" opacity="1" stroke="#605f5f" stroke-linecap="butt" stroke-linejoin="round" stroke-width="60" vectornator:layerName="Curva 3"/>
<g opacity="1" vectornator:layerName="Curva 12">
<use fill="#000000" fill-rule="nonzero" stroke="none" xlink:href="#Fill_2"/>
<mask height="2371.05" id="StrokeMask_2" maskUnits="userSpaceOnUse" width="1836.09" x="-52.0159" y="-313.989">
<rect fill="#ffffff" height="2371.05" stroke="none" width="1836.09" x="-52.0159" y="-313.989"/>
<use fill="#000000" fill-rule="evenodd" stroke="none" xlink:href="#Fill_2"/>
</mask>
<use fill="none" mask="url(#StrokeMask_2)" stroke="#ffffff" stroke-linecap="butt" stroke-linejoin="round" stroke-width="20" xlink:href="#Fill_2"/>
</g>
<path d="M902.892 560.413C884.739 513.452 861.766 467.393 844.737 420.221" fill="none" opacity="1" stroke="#605f5f" stroke-linecap="butt" stroke-linejoin="round" stroke-width="60" vectornator:layerName="Curva 1"/>
</g>
<g id="Livello-2" vectornator:layerName="Livello 2">
<g fill="#000000" opacity="1" stroke="none" vectornator:layerName="Testo 1">
<path d="M228.936 449.785L228.936 164.985L350.536 164.985L350.536 203.385L269.736 203.385L269.736 286.985L340.136 286.985L340.136 325.385L269.736 325.385L269.736 408.985L350.536 408.985L350.536 449.785L228.936 449.785Z"/>
<path d="M426.936 449.785L426.936 164.985L488.136 164.985C499.336 164.985 509.203 166.451 517.736 169.385C526.27 172.318 534.003 177.518 540.936 184.985C547.87 192.451 552.67 201.185 555.336 211.185C558.003 221.185 559.336 234.718 559.336 251.785C559.336 264.585 558.603 275.385 557.136 284.185C555.67 292.985 552.536 301.251 547.736 308.985C542.136 318.318 534.67 325.585 525.336 330.785C516.003 335.985 503.736 338.585 488.536 338.585L467.736 338.585L467.736 449.785L426.936 449.785ZM467.736 203.385L467.736 300.185L487.336 300.185C495.603 300.185 502.003 298.985 506.536 296.585C511.07 294.185 514.403 290.851 516.536 286.585C518.67 282.585 519.936 277.651 520.336 271.785C520.736 265.918 520.936 259.385 520.936 252.185C520.936 245.518 520.803 239.185 520.536 233.185C520.27 227.185 519.07 221.918 516.936 217.385C514.803 212.851 511.603 209.385 507.336 206.985C503.07 204.585 496.936 203.385 488.936 203.385L467.736 203.385Z"/>
<path d="M640.936 449.785L640.936 164.985L681.736 164.985L681.736 449.785L640.936 449.785Z"/>
</g>
<g fill="#000000" opacity="1" stroke="none" vectornator:layerName="Testo 2">
<path d="M556.485 1419.38L556.485 1134.58L616.885 1134.58C640.352 1134.58 658.152 1140.98 670.285 1153.78C682.419 1166.58 688.485 1184.71 688.485 1208.18L688.485 1341.38C688.485 1368.05 682.019 1387.71 669.085 1400.38C656.152 1413.05 637.552 1419.38 613.285 1419.38L556.485 1419.38ZM597.285 1172.98L597.285 1380.98L616.085 1380.98C627.552 1380.98 635.685 1378.11 640.485 1372.38C645.285 1366.65 647.685 1357.65 647.685 1345.38L647.685 1208.18C647.685 1196.98 645.419 1188.31 640.885 1182.18C636.352 1176.05 628.085 1172.98 616.085 1172.98L597.285 1172.98Z"/>
<path d="M736.885 1419.38L736.885 1134.58L858.485 1134.58L858.485 1172.98L777.685 1172.98L777.685 1256.58L848.085 1256.58L848.085 1294.98L777.685 1294.98L777.685 1378.58L858.485 1378.58L858.485 1419.38L736.885 1419.38Z"/>
<path d="M921.685 1419.38L921.685 1172.98L874.485 1172.98L874.485 1134.58L1009.69 1134.58L1009.69 1172.98L962.485 1172.98L962.485 1419.38L921.685 1419.38Z"/>
<path d="M1037.69 1419.38L1037.69 1134.58L1159.29 1134.58L1159.29 1172.98L1078.49 1172.98L1078.49 1256.58L1148.89 1256.58L1148.89 1294.98L1078.49 1294.98L1078.49 1378.58L1159.29 1378.58L1159.29 1419.38L1037.69 1419.38Z"/>
<path d="M1325.29 1338.18L1325.29 1355.78C1325.29 1364.58 1323.62 1372.91 1320.29 1380.78C1316.95 1388.65 1312.35 1395.65 1306.49 1401.78C1300.62 1407.91 1293.75 1412.78 1285.89 1416.38C1278.02 1419.98 1269.55 1421.78 1260.49 1421.78C1252.75 1421.78 1244.89 1420.71 1236.89 1418.58C1228.89 1416.45 1221.69 1412.71 1215.29 1407.38C1208.89 1402.05 1203.62 1395.18 1199.49 1386.78C1195.35 1378.38 1193.29 1367.65 1193.29 1354.58L1193.29 1197.78C1193.29 1188.45 1194.89 1179.78 1198.09 1171.78C1201.29 1163.78 1205.82 1156.85 1211.69 1150.98C1217.55 1145.11 1224.55 1140.51 1232.69 1137.18C1240.82 1133.85 1249.82 1132.18 1259.69 1132.18C1278.89 1132.18 1294.49 1138.45 1306.49 1150.98C1312.35 1157.11 1316.95 1164.38 1320.29 1172.78C1323.62 1181.18 1325.29 1190.31 1325.29 1200.18L1325.29 1216.18L1284.49 1216.18L1284.49 1202.58C1284.49 1194.58 1282.22 1187.65 1277.69 1181.78C1273.15 1175.91 1267.02 1172.98 1259.29 1172.98C1249.15 1172.98 1242.42 1176.11 1239.09 1182.38C1235.75 1188.65 1234.09 1196.58 1234.09 1206.18L1234.09 1351.78C1234.09 1360.05 1235.89 1366.98 1239.49 1372.58C1243.09 1378.18 1249.55 1380.98 1258.89 1380.98C1261.55 1380.98 1264.42 1380.51 1267.49 1379.58C1270.55 1378.65 1273.42 1377.11 1276.09 1374.98C1278.49 1372.85 1280.49 1369.91 1282.09 1366.18C1283.69 1362.45 1284.49 1357.78 1284.49 1352.18L1284.49 1338.18L1325.29 1338.18Z"/>
<path d="M1395.29 1419.38L1395.29 1172.98L1348.09 1172.98L1348.09 1134.58L1483.29 1134.58L1483.29 1172.98L1436.09 1172.98L1436.09 1419.38L1395.29 1419.38Z"/>
</g>
</g>
</svg>
